<svg width="25" height="25" viewBox="0 0 25 25" fill="none" xmlns="http://www.w3.org/2000/svg">
<g clip-path="url(#clip0_8_122)">
<path d="M12.5 25C13.3288 25 14.1237 24.6707 14.7097 24.0847C15.2958 23.4986 15.625 22.7038 15.625 21.875H9.375C9.375 22.7038 9.70424 23.4986 10.2903 24.0847C10.8763 24.6707 11.6712 25 12.5 25ZM12.5 2.99684L11.2547 3.2484C9.84212 3.53621 8.57239 4.30325 7.66039 5.41969C6.7484 6.53612 6.25015 7.93338 6.25 9.37496C6.25 10.3562 6.04062 12.8078 5.53281 15.2218C5.28281 16.4203 4.94531 17.6687 4.49688 18.75H20.5031C20.0547 17.6687 19.7188 16.4218 19.4672 15.2218C18.9594 12.8078 18.75 10.3562 18.75 9.37496C18.7495 7.93365 18.2511 6.53676 17.3391 5.42064C16.4271 4.30453 15.1576 3.53772 13.7453 3.24996L12.5 2.99528V2.99684ZM22.2188 18.75C22.5672 19.4484 22.9703 20.0015 23.4375 20.3125H1.5625C2.02969 20.0015 2.43281 19.4484 2.78125 18.75C4.1875 15.9375 4.6875 10.75 4.6875 9.37496C4.6875 5.59371 7.375 2.43746 10.9453 1.71715C10.9235 1.49989 10.9475 1.28047 11.0157 1.07305C11.0839 0.86562 11.1948 0.674791 11.3413 0.512866C11.4878 0.350942 11.6666 0.221517 11.8661 0.132939C12.0657 0.044361 12.2816 -0.00140381 12.5 -0.00140381C12.7184 -0.00140381 12.9343 0.044361 13.1339 0.132939C13.3334 0.221517 13.5122 0.350942 13.6587 0.512866C13.8052 0.674791 13.9161 0.86562 13.9843 1.07305C14.0525 1.28047 14.0765 1.49989 14.0547 1.71715C15.8208 2.07637 17.4084 3.0349 18.5488 4.43043C19.6892 5.82597 20.3123 7.57274 20.3125 9.37496C20.3125 10.75 20.8125 15.9375 22.2188 18.75Z" fill="#FEFEFE" fill-opacity="0.9"/>
</g>
<defs>
<clipPath id="clip0_8_122">
<rect width="25" height="25" fill="white"/>
</clipPath>
</defs>
</svg>
