<svg width="28" height="17" viewBox="0 0 28 17" fill="none" xmlns="http://www.w3.org/2000/svg">
<path fill-rule="evenodd" clip-rule="evenodd" d="M14.5 14.5C14.5 14.6326 14.4473 14.7598 14.3536 14.8536C14.2598 14.9473 14.1326 15 14 15L9.2 15C8.87169 15 8.5466 14.9353 8.24329 14.8097C7.93998 14.6841 7.66438 14.4999 7.43223 14.2678C7.20009 14.0356 7.01594 13.76 6.8903 13.4567C6.76466 13.1534 6.7 12.8283 6.7 12.5L6.7 2.707L3.354 6.054C3.26011 6.14789 3.13278 6.20063 3 6.20063C2.86722 6.20063 2.73989 6.14789 2.646 6.054C2.55211 5.96011 2.49937 5.83278 2.49937 5.7C2.49937 5.56722 2.55211 5.43989 2.646 5.346L6.846 1.146C6.89245 1.09944 6.94762 1.06249 7.00837 1.03729C7.06911 1.01208 7.13423 0.999107 7.2 0.999107C7.26577 0.999107 7.33089 1.01208 7.39163 1.03729C7.45238 1.06249 7.50755 1.09944 7.554 1.146L11.554 5.146C11.6479 5.23989 11.7006 5.36723 11.7006 5.5C11.7006 5.63278 11.6479 5.76011 11.554 5.854C11.4601 5.94789 11.3328 6.00063 11.2 6.00063C11.0672 6.00063 10.9399 5.94789 10.846 5.854L7.7 2.707L7.7 12.5C7.7 12.8978 7.85804 13.2794 8.13934 13.5607C8.42064 13.842 8.80217 14 9.2 14L14 14C14.1326 14 14.2598 14.0527 14.3536 14.1464C14.4473 14.2402 14.5 14.3674 14.5 14.5Z" fill="#FEFEFE"/>
<path fill-rule="evenodd" clip-rule="evenodd" d="M13.5 2.5C13.5 2.36739 13.5527 2.24021 13.6464 2.14645C13.7402 2.05268 13.8674 2 14 2L18.8 2C19.1283 2 19.4534 2.06466 19.7567 2.1903C20.06 2.31594 20.3356 2.50009 20.5678 2.73223C20.7999 2.96438 20.9841 3.23998 21.1097 3.54329C21.2353 3.8466 21.3 4.17169 21.3 4.5L21.3 14.293L24.646 10.946C24.7399 10.8521 24.8672 10.7994 25 10.7994C25.1328 10.7994 25.2601 10.8521 25.354 10.946C25.4479 11.0399 25.5006 11.1672 25.5006 11.3C25.5006 11.4328 25.4479 11.5601 25.354 11.654L21.154 15.854C21.1076 15.9006 21.0524 15.9375 20.9916 15.9627C20.9309 15.9879 20.8658 16.0009 20.8 16.0009C20.7342 16.0009 20.6691 15.9879 20.6084 15.9627C20.5476 15.9375 20.4924 15.9006 20.446 15.854L16.446 11.854C16.3521 11.7601 16.2994 11.6328 16.2994 11.5C16.2994 11.3672 16.3521 11.2399 16.446 11.146C16.5399 11.0521 16.6672 10.9994 16.8 10.9994C16.9328 10.9994 17.0601 11.0521 17.154 11.146L20.3 14.293L20.3 4.5C20.3 4.10217 20.142 3.72064 19.8607 3.43934C19.5794 3.15803 19.1978 3 18.8 3L14 3C13.8674 3 13.7402 2.94732 13.6464 2.85355C13.5527 2.75978 13.5 2.63261 13.5 2.5Z" fill="#FEFEFE"/>
</svg>
