<svg width="30" height="28" viewBox="0 0 30 28" fill="none" xmlns="http://www.w3.org/2000/svg">
<path d="M5.37113 26.7868C5.22488 27.6155 6.04611 28.2632 6.76985 27.8936L15.001 23.6827L23.2302 27.8936C23.9539 28.2632 24.7751 27.6155 24.6289 26.7886L23.0727 17.96L29.6763 11.6959C30.295 11.1098 29.9763 10.0384 29.1476 9.92271L19.964 8.62361L15.8691 0.54716C15.7911 0.383445 15.668 0.245125 15.5141 0.14827C15.3603 0.0514143 15.182 0 15 0C14.818 0 14.6397 0.0514143 14.4859 0.14827C14.332 0.245125 14.209 0.383445 14.131 0.54716L10.036 8.62548L0.85246 9.92458C0.0255997 10.0403 -0.295019 11.1117 0.321844 11.6978L6.92735 17.9618L5.37113 26.7905V26.7868ZM14.5678 21.6221L7.65671 25.1573L8.95794 17.7714C8.98842 17.6014 8.97649 17.4266 8.9232 17.2622C8.86992 17.0979 8.7769 16.949 8.65232 16.8289L3.20367 11.6586L10.801 10.5835C10.9583 10.5598 11.1076 10.4986 11.2359 10.4049C11.3642 10.3113 11.4679 10.1881 11.5379 10.0459L14.9972 3.21816L18.4603 10.0459C18.5303 10.1881 18.6339 10.3113 18.7623 10.4049C18.8906 10.4986 19.0398 10.5598 19.1971 10.5835L26.7945 11.6567L21.3458 16.827C21.221 16.9474 21.1278 17.0965 21.0745 17.2612C21.0212 17.4259 21.0094 17.6011 21.0402 17.7714L22.3414 25.1573L15.4303 21.6221C15.2967 21.5535 15.1485 21.5177 14.9981 21.5177C14.8478 21.5177 14.6996 21.5535 14.566 21.6221H14.5678Z" fill="#FEFEFE" fill-opacity="0.9"/>
</svg>
