<svg width="42" height="42" viewBox="0 0 42 42" fill="none" xmlns="http://www.w3.org/2000/svg">
<path d="M36.75 10.8754C35.5924 11.3881 34.3472 11.7302 33.0339 11.8921C34.3691 11.0994 35.3964 9.835 35.8785 8.34137C34.629 9.07375 33.2448 9.61188 31.7721 9.89538C30.5961 8.6485 28.9188 7.875 27.0603 7.875C23.4903 7.875 20.5966 10.7432 20.5966 14.28C20.5966 14.7805 20.6553 15.2679 20.7655 15.7413C15.3948 15.4717 10.6313 12.9185 7.4445 9.044C6.8845 9.99075 6.5695 11.0994 6.5695 12.2693C6.5695 14.4926 7.70788 16.45 9.44388 17.6033C8.38425 17.5709 7.38675 17.276 6.5135 16.8035C6.5135 16.8228 6.5135 16.8516 6.5135 16.8788C6.5135 19.9859 8.74213 22.5733 11.6961 23.1621C11.1562 23.31 10.5858 23.3922 9.99775 23.3922C9.58038 23.3922 9.1735 23.345 8.77975 23.2741C9.60225 25.8134 11.9884 27.6692 14.8155 27.7244C12.6035 29.4394 9.8175 30.4666 6.78825 30.4666C6.265 30.4666 5.75313 30.4369 5.24738 30.3756C8.1095 32.1877 11.508 33.25 15.1559 33.25C27.0427 33.25 33.5457 23.4885 33.5457 15.0203C33.5457 14.7429 33.537 14.4664 33.5239 14.1934C34.7926 13.2974 35.8864 12.1669 36.75 10.8754Z" fill="#03A9F4"/>
</svg>
