<svg width="16" height="16" viewBox="0 0 16 16" fill="none" xmlns="http://www.w3.org/2000/svg">
<path d="M0.5 9.9C0.632608 9.9 0.759785 9.95268 0.853553 10.0464C0.947322 10.1402 1 10.2674 1 10.4V12.9C1 13.1652 1.10536 13.4196 1.29289 13.6071C1.48043 13.7946 1.73478 13.9 2 13.9H14C14.2652 13.9 14.5196 13.7946 14.7071 13.6071C14.8946 13.4196 15 13.1652 15 12.9V10.4C15 10.2674 15.0527 10.1402 15.1464 10.0464C15.2402 9.95268 15.3674 9.9 15.5 9.9C15.6326 9.9 15.7598 9.95268 15.8536 10.0464C15.9473 10.1402 16 10.2674 16 10.4V12.9C16 13.4304 15.7893 13.9391 15.4142 14.3142C15.0391 14.6893 14.5304 14.9 14 14.9H2C1.46957 14.9 0.960859 14.6893 0.585786 14.3142C0.210714 13.9391 0 13.4304 0 12.9V10.4C0 10.2674 0.0526784 10.1402 0.146447 10.0464C0.240215 9.95268 0.367392 9.9 0.5 9.9Z" fill="#FEFEFE"/>
<path d="M7.646 1.146C7.69244 1.09944 7.74762 1.0625 7.80836 1.03729C7.86911 1.01208 7.93423 0.999107 8 0.999107C8.06577 0.999107 8.13089 1.01208 8.19163 1.03729C8.25238 1.0625 8.30755 1.09944 8.354 1.146L11.354 4.146C11.4479 4.23989 11.5006 4.36723 11.5006 4.5C11.5006 4.63278 11.4479 4.76011 11.354 4.854C11.2601 4.94789 11.1328 5.00063 11 5.00063C10.8672 5.00063 10.7399 4.94789 10.646 4.854L8.5 2.707V11.5C8.5 11.6326 8.44732 11.7598 8.35355 11.8536C8.25978 11.9473 8.13261 12 8 12C7.86739 12 7.74021 11.9473 7.64645 11.8536C7.55268 11.7598 7.5 11.6326 7.5 11.5V2.707L5.354 4.854C5.30751 4.90049 5.25232 4.93737 5.19158 4.96252C5.13084 4.98768 5.06574 5.00063 5 5.00063C4.93425 5.00063 4.86915 4.98768 4.80841 4.96252C4.74768 4.93737 4.69249 4.90049 4.646 4.854C4.59951 4.80751 4.56263 4.75232 4.53748 4.69158C4.51232 4.63085 4.49937 4.56575 4.49937 4.5C4.49937 4.43426 4.51232 4.36916 4.53748 4.30842C4.56263 4.24768 4.59951 4.19249 4.646 4.146L7.646 1.146Z" fill="#FEFEFE"/>
</svg>
