<svg width="9" height="9" viewBox="0 0 9 9" fill="none" xmlns="http://www.w3.org/2000/svg">
<path d="M5.66281 0.489504C5.51138 0.334552 5.33051 0.211427 5.13083 0.127365C4.93114 0.0433033 4.71666 0 4.5 0C4.28334 0 4.06886 0.0433033 3.86918 0.127365C3.66949 0.211427 3.48862 0.334552 3.3372 0.489504L2.98729 0.848392L2.48661 0.842204C2.26989 0.839639 2.05484 0.880432 1.85411 0.962183C1.65338 1.04393 1.47102 1.16499 1.31776 1.31824C1.1645 1.47149 1.04344 1.65384 0.961681 1.85455C0.879925 2.05527 0.83913 2.27031 0.841695 2.48702L0.84732 2.98766L0.489534 3.33755C0.334572 3.48896 0.21144 3.66982 0.127373 3.8695C0.043306 4.06917 0 4.28363 0 4.50028C0 4.71693 0.043306 4.93139 0.127373 5.13107C0.21144 5.33074 0.334572 5.5116 0.489534 5.66301L0.847883 6.0129L0.841695 6.51355C0.83913 6.73026 0.879925 6.94529 0.961681 7.14601C1.04344 7.34673 1.1645 7.52907 1.31776 7.68232C1.47102 7.83557 1.65338 7.95663 1.85411 8.03838C2.05484 8.12013 2.26989 8.16092 2.48661 8.15836L2.98729 8.15273L3.3372 8.5105C3.48862 8.66545 3.66949 8.78857 3.86918 8.87263C4.06886 8.9567 4.28334 9 4.5 9C4.71666 9 4.93114 8.9567 5.13083 8.87263C5.33051 8.78857 5.51138 8.66545 5.66281 8.5105L6.01271 8.15217L6.51339 8.15836C6.73012 8.16092 6.94517 8.12013 7.14589 8.03838C7.34662 7.95663 7.52898 7.83557 7.68224 7.68232C7.8355 7.52907 7.95656 7.34673 8.03832 7.14601C8.12008 6.94529 8.16087 6.73026 8.15831 6.51355L8.15268 6.0129L8.51047 5.66301C8.66543 5.5116 8.78856 5.33074 8.87263 5.13107C8.95669 4.93139 9 4.71693 9 4.50028C9 4.28363 8.95669 4.06917 8.87263 3.8695C8.78856 3.66982 8.66543 3.48896 8.51047 3.33755L8.15212 2.98766L8.15831 2.48702C8.16087 2.27031 8.12008 2.05527 8.03832 1.85455C7.95656 1.65384 7.8355 1.47149 7.68224 1.31824C7.52898 1.16499 7.34662 1.04393 7.14589 0.962183C6.94517 0.880432 6.73012 0.839639 6.51339 0.842204L6.01271 0.84783L5.66281 0.489504ZM5.82426 3.85563L4.13659 5.5432C4.11046 5.56939 4.07942 5.59017 4.04525 5.60435C4.01108 5.61853 3.97444 5.62583 3.93744 5.62583C3.90045 5.62583 3.86381 5.61853 3.82964 5.60435C3.79547 5.59017 3.76443 5.56939 3.7383 5.5432L2.89446 4.69941C2.86831 4.67326 2.84757 4.64222 2.83341 4.60805C2.81926 4.57388 2.81198 4.53726 2.81198 4.50028C2.81198 4.4633 2.81926 4.42668 2.83341 4.39251C2.84757 4.35834 2.86831 4.3273 2.89446 4.30115C2.92062 4.275 2.95166 4.25425 2.98583 4.2401C3.02 4.22595 3.05662 4.21867 3.09361 4.21867C3.13059 4.21867 3.16722 4.22595 3.20139 4.2401C3.23555 4.25425 3.2666 4.275 3.29275 4.30115L3.93744 4.94636L5.42597 3.45737C5.47879 3.40455 5.55042 3.37488 5.62511 3.37488C5.69981 3.37488 5.77144 3.40455 5.82426 3.45737C5.87708 3.51018 5.90675 3.58181 5.90675 3.6565C5.90675 3.73119 5.87708 3.80282 5.82426 3.85563Z" fill="#FEFEFE"/>
</svg>
